# xmcd CD database file
#
# Track frame offsets:
#	150
#	98677
#	103440
#	117348
#	123316
#	134041
#	147817
#	156518
#
# Disc length: 2191 seconds
#
# Revision: 0
# Processed by: cddbd v1.5.2PL0 Copyright (c) Steve Scherf et al.
# Submitted via: CDex 1.51
#
DISCID=77088d08
DTITLE=Frederik die kleine Maus - Ali Baba und die 40 Räuber
DYEAR=2004
DGENRE=Kids
TTITLE0=Ali Baba und die 40 Räuber
TTITLE1=Frederik die kleine Maus
TTITLE2=Fuchs du hast die Gans gestohlen
TTITLE3=Ich gehe mit meiner laterne
TTITLE4=Zeigt her eure Füße
TTITLE5=Vogelhochzeit
TTITLE6=Es klappert die Mühle
TTITLE7=Schlaf kindlein Schlaf
EXTD=YEAR: 2004
EXTT0=
EXTT1=
EXTT2=
EXTT3=
EXTT4=
EXTT5=
EXTT6=
EXTT7=
PLAYORDER=
